<svg width="130" height="24" viewBox="0 0 130 24" fill="none" xmlns="http://www.w3.org/2000/svg">
<path d="M7.16797 12.5846H2.82031V9.84245H7.16797C7.83984 9.84245 8.38672 9.73307 8.80859 9.51432C9.23047 9.28776 9.53906 8.97526 9.73438 8.57682C9.92969 8.17838 10.0273 7.72916 10.0273 7.22916C10.0273 6.72135 9.92969 6.2487 9.73438 5.8112C9.53906 5.3737 9.23047 5.02213 8.80859 4.75651C8.38672 4.49088 7.83984 4.35807 7.16797 4.35807H4.03906V18.6667H0.523438V1.60416H7.16797C8.50391 1.60416 9.64844 1.84635 10.6016 2.33073C11.5625 2.80729 12.2969 3.46745 12.8047 4.3112C13.3125 5.15495 13.5664 6.11979 13.5664 7.20573C13.5664 8.30729 13.3125 9.26041 12.8047 10.0651C12.2969 10.8698 11.5625 11.4909 10.6016 11.9284C9.64844 12.3659 8.50391 12.5846 7.16797 12.5846ZM19.1562 8.7526V18.6667H15.7812V5.98698H18.957L19.1562 8.7526ZM22.9766 5.90495L22.918 9.03385C22.7539 9.01041 22.5547 8.99088 22.3203 8.97526C22.0938 8.95182 21.8867 8.9401 21.6992 8.9401C21.2227 8.9401 20.8086 9.0026 20.457 9.1276C20.1133 9.24479 19.8242 9.42057 19.5898 9.65495C19.3633 9.88932 19.1914 10.1745 19.0742 10.5104C18.9648 10.8464 18.9023 11.2292 18.8867 11.6589L18.207 11.4479C18.207 10.6276 18.2891 9.8737 18.4531 9.1862C18.6172 8.49088 18.8555 7.88541 19.168 7.36979C19.4883 6.85416 19.8789 6.45573 20.3398 6.17448C20.8008 5.89323 21.3281 5.7526 21.9219 5.7526C22.1094 5.7526 22.3008 5.76823 22.4961 5.79948C22.6914 5.82291 22.8516 5.85807 22.9766 5.90495ZM30.1719 18.901C29.1875 18.901 28.3047 18.7448 27.5234 18.4323C26.7422 18.112 26.0781 17.6706 25.5312 17.1081C24.9922 16.5456 24.5781 15.8932 24.2891 15.151C24 14.401 23.8555 13.6042 23.8555 12.7604V12.2917C23.8555 11.3307 23.9922 10.4518 24.2656 9.65495C24.5391 8.85807 24.9297 8.16666 25.4375 7.58073C25.9531 6.99479 26.5781 6.54557 27.3125 6.23307C28.0469 5.91276 28.875 5.7526 29.7969 5.7526C30.6953 5.7526 31.4922 5.90104 32.1875 6.19791C32.8828 6.49479 33.4648 6.91666 33.9336 7.46354C34.4102 8.01041 34.7695 8.66666 35.0117 9.43229C35.2539 10.1901 35.375 11.0339 35.375 11.9635V13.3698H25.2969V11.1198H32.0586V10.862C32.0586 10.3932 31.9727 9.97526 31.8008 9.60807C31.6367 9.23307 31.3867 8.9362 31.0508 8.71745C30.7148 8.4987 30.2852 8.38932 29.7617 8.38932C29.3164 8.38932 28.9336 8.48698 28.6133 8.68229C28.293 8.8776 28.0312 9.15104 27.8281 9.5026C27.6328 9.85416 27.4844 10.2682 27.3828 10.7448C27.2891 11.2135 27.2422 11.7292 27.2422 12.2917V12.7604C27.2422 13.2682 27.3125 13.737 27.4531 14.1667C27.6016 14.5964 27.8086 14.9674 28.0742 15.2799C28.3477 15.5924 28.6758 15.8346 29.0586 16.0065C29.4492 16.1784 29.8906 16.2643 30.3828 16.2643C30.9922 16.2643 31.5586 16.1471 32.082 15.9128C32.6133 15.6706 33.0703 15.3073 33.4531 14.8229L35.0938 16.6042C34.8281 16.987 34.4648 17.3542 34.0039 17.7057C33.5508 18.0573 33.0039 18.3464 32.3633 18.5729C31.7227 18.7917 30.9922 18.901 30.1719 18.901ZM40.6016 8.69401V18.6667H37.2266V5.98698H40.3906L40.6016 8.69401ZM40.1094 11.8815H39.1953C39.1953 10.944 39.3164 10.1003 39.5586 9.35026C39.8008 8.59245 40.1406 7.94791 40.5781 7.41666C41.0156 6.8776 41.5352 6.46745 42.1367 6.1862C42.7461 5.89713 43.4258 5.7526 44.1758 5.7526C44.7695 5.7526 45.3125 5.83854 45.8047 6.01041C46.2969 6.18229 46.7188 6.45573 47.0703 6.83073C47.4297 7.20573 47.7031 7.70182 47.8906 8.31901C48.0859 8.9362 48.1836 9.6901 48.1836 10.5807V18.6667H44.7852V10.569C44.7852 10.0065 44.707 9.56901 44.5508 9.25651C44.3945 8.94401 44.1641 8.72526 43.8594 8.60026C43.5625 8.46745 43.1953 8.40104 42.7578 8.40104C42.3047 8.40104 41.9102 8.49088 41.5742 8.67057C41.2461 8.85026 40.9727 9.10026 40.7539 9.42057C40.543 9.73307 40.3828 10.1003 40.2734 10.5221C40.1641 10.944 40.1094 11.3971 40.1094 11.8815ZM56.5859 18.901C55.6016 18.901 54.7188 18.7448 53.9375 18.4323C53.1562 18.112 52.4922 17.6706 51.9453 17.1081C51.4062 16.5456 50.9922 15.8932 50.7031 15.151C50.4141 14.401 50.2695 13.6042 50.2695 12.7604V12.2917C50.2695 11.3307 50.4062 10.4518 50.6797 9.65495C50.9531 8.85807 51.3438 8.16666 51.8516 7.58073C52.3672 6.99479 52.9922 6.54557 53.7266 6.23307C54.4609 5.91276 55.2891 5.7526 56.2109 5.7526C57.1094 5.7526 57.9062 5.90104 58.6016 6.19791C59.2969 6.49479 59.8789 6.91666 60.3477 7.46354C60.8242 8.01041 61.1836 8.66666 61.4258 9.43229C61.668 10.1901 61.7891 11.0339 61.7891 11.9635V13.3698H51.7109V11.1198H58.4727V10.862C58.4727 10.3932 58.3867 9.97526 58.2148 9.60807C58.0508 9.23307 57.8008 8.9362 57.4648 8.71745C57.1289 8.4987 56.6992 8.38932 56.1758 8.38932C55.7305 8.38932 55.3477 8.48698 55.0273 8.68229C54.707 8.8776 54.4453 9.15104 54.2422 9.5026C54.0469 9.85416 53.8984 10.2682 53.7969 10.7448C53.7031 11.2135 53.6562 11.7292 53.6562 12.2917V12.7604C53.6562 13.2682 53.7266 13.737 53.8672 14.1667C54.0156 14.5964 54.2227 14.9674 54.4883 15.2799C54.7617 15.5924 55.0898 15.8346 55.4727 16.0065C55.8633 16.1784 56.3047 16.2643 56.7969 16.2643C57.4062 16.2643 57.9727 16.1471 58.4961 15.9128C59.0273 15.6706 59.4844 15.3073 59.8672 14.8229L61.5078 16.6042C61.2422 16.987 60.8789 17.3542 60.418 17.7057C59.9648 18.0573 59.418 18.3464 58.7773 18.5729C58.1367 18.7917 57.4062 18.901 56.5859 18.901ZM71.2109 15.6315V5.98698H74.5859V18.6667H71.4102L71.2109 15.6315ZM71.5859 13.0299L72.582 13.0065C72.582 13.8503 72.4844 14.6354 72.2891 15.362C72.0938 16.0807 71.8008 16.7057 71.4102 17.237C71.0195 17.7604 70.5273 18.1706 69.9336 18.4674C69.3398 18.7565 68.6406 18.901 67.8359 18.901C67.2188 18.901 66.6484 18.8151 66.125 18.6432C65.6094 18.4635 65.1641 18.1862 64.7891 17.8112C64.4219 17.4284 64.1328 16.9401 63.9219 16.3464C63.7188 15.7448 63.6172 15.0221 63.6172 14.1784V5.98698H66.9922V14.2018C66.9922 14.5768 67.0352 14.8932 67.1211 15.151C67.2148 15.4089 67.3438 15.6198 67.5078 15.7839C67.6719 15.9479 67.8633 16.0651 68.082 16.1354C68.3086 16.2057 68.5586 16.2409 68.832 16.2409C69.5273 16.2409 70.0742 16.1003 70.4727 15.819C70.8789 15.5378 71.1641 15.1549 71.3281 14.6706C71.5 14.1784 71.5859 13.6315 71.5859 13.0299ZM80.5391 8.7526V18.6667H77.1641V5.98698H80.3398L80.5391 8.7526ZM84.3594 5.90495L84.3008 9.03385C84.1367 9.01041 83.9375 8.99088 83.7031 8.97526C83.4766 8.95182 83.2695 8.9401 83.082 8.9401C82.6055 8.9401 82.1914 9.0026 81.8398 9.1276C81.4961 9.24479 81.207 9.42057 80.9727 9.65495C80.7461 9.88932 80.5742 10.1745 80.457 10.5104C80.3477 10.8464 80.2852 11.2292 80.2695 11.6589L79.5898 11.4479C79.5898 10.6276 79.6719 9.8737 79.8359 9.1862C80 8.49088 80.2383 7.88541 80.5508 7.36979C80.8711 6.85416 81.2617 6.45573 81.7227 6.17448C82.1836 5.89323 82.7109 5.7526 83.3047 5.7526C83.4922 5.7526 83.6836 5.76823 83.8789 5.79948C84.0742 5.82291 84.2344 5.85807 84.3594 5.90495ZM92.8086 15.1628C92.8086 14.9206 92.7383 14.7018 92.5977 14.5065C92.457 14.3112 92.1953 14.1315 91.8125 13.9674C91.4375 13.7956 90.8945 13.6393 90.1836 13.4987C89.543 13.3581 88.9453 13.1823 88.3906 12.9714C87.8438 12.7526 87.3672 12.4909 86.9609 12.1862C86.5625 11.8815 86.25 11.5221 86.0234 11.1081C85.7969 10.6862 85.6836 10.2057 85.6836 9.66666C85.6836 9.13541 85.7969 8.63541 86.0234 8.16666C86.2578 7.69791 86.5898 7.28385 87.0195 6.92448C87.457 6.55729 87.9883 6.27213 88.6133 6.06901C89.2461 5.85807 89.957 5.7526 90.7461 5.7526C91.8477 5.7526 92.793 5.92838 93.582 6.27995C94.3789 6.63151 94.9883 7.11588 95.4102 7.73307C95.8398 8.34245 96.0547 9.03776 96.0547 9.81901H92.6797C92.6797 9.49088 92.6094 9.19791 92.4688 8.9401C92.3359 8.67448 92.125 8.46745 91.8359 8.31901C91.5547 8.16276 91.1875 8.08463 90.7344 8.08463C90.3594 8.08463 90.0352 8.15104 89.7617 8.28385C89.4883 8.40885 89.2773 8.58073 89.1289 8.79948C88.9883 9.01041 88.918 9.24479 88.918 9.5026C88.918 9.69791 88.957 9.8737 89.0352 10.0299C89.1211 10.1784 89.2578 10.3151 89.4453 10.4401C89.6328 10.5651 89.875 10.6823 90.1719 10.7917C90.4766 10.8932 90.8516 10.987 91.2969 11.0729C92.2109 11.2604 93.0273 11.5065 93.7461 11.8112C94.4648 12.1081 95.0352 12.5143 95.457 13.0299C95.8789 13.5378 96.0898 14.2057 96.0898 15.0339C96.0898 15.5964 95.9648 16.112 95.7148 16.5807C95.4648 17.0495 95.1055 17.4596 94.6367 17.8112C94.168 18.1549 93.6055 18.4245 92.9492 18.6198C92.3008 18.8073 91.5703 18.901 90.7578 18.901C89.5781 18.901 88.5781 18.6901 87.7578 18.2682C86.9453 17.8464 86.3281 17.3112 85.9062 16.6628C85.4922 16.0065 85.2852 15.3346 85.2852 14.6471H88.4844C88.5 15.1081 88.6172 15.4792 88.8359 15.7604C89.0625 16.0417 89.3477 16.2448 89.6914 16.3698C90.043 16.4948 90.4219 16.5573 90.8281 16.5573C91.2656 16.5573 91.6289 16.4987 91.918 16.3815C92.207 16.2565 92.4258 16.0924 92.5742 15.8893C92.7305 15.6784 92.8086 15.4362 92.8086 15.1628ZM101.574 0.666664V18.6667H98.1992V0.666664H101.574ZM101.094 11.8815H100.168C100.176 10.9987 100.293 10.1862 100.52 9.44401C100.746 8.69401 101.07 8.04557 101.492 7.4987C101.914 6.94401 102.418 6.51432 103.004 6.20963C103.598 5.90495 104.254 5.7526 104.973 5.7526C105.598 5.7526 106.164 5.84245 106.672 6.02213C107.188 6.19401 107.629 6.47526 107.996 6.86588C108.371 7.2487 108.66 7.7526 108.863 8.3776C109.066 9.0026 109.168 9.76041 109.168 10.651V18.6667H105.77V10.6276C105.77 10.0651 105.688 9.6237 105.523 9.30338C105.367 8.97526 105.137 8.74479 104.832 8.61198C104.535 8.47135 104.168 8.40104 103.73 8.40104C103.246 8.40104 102.832 8.49088 102.488 8.67057C102.152 8.85026 101.883 9.10026 101.68 9.42057C101.477 9.73307 101.328 10.1003 101.234 10.5221C101.141 10.944 101.094 11.3971 101.094 11.8815ZM115.297 5.98698V18.6667H111.91V5.98698H115.297ZM111.699 2.68229C111.699 2.1901 111.871 1.78385 112.215 1.46354C112.559 1.14323 113.02 0.98307 113.598 0.98307C114.168 0.98307 114.625 1.14323 114.969 1.46354C115.32 1.78385 115.496 2.1901 115.496 2.68229C115.496 3.17448 115.32 3.58073 114.969 3.90104C114.625 4.22135 114.168 4.38151 113.598 4.38151C113.02 4.38151 112.559 4.22135 112.215 3.90104C111.871 3.58073 111.699 3.17448 111.699 2.68229ZM121.461 8.42448V23.5417H118.086V5.98698H121.215L121.461 8.42448ZM129.488 12.1862V12.4323C129.488 13.3542 129.379 14.2096 129.16 14.9987C128.949 15.7878 128.637 16.4753 128.223 17.0612C127.809 17.6393 127.293 18.0924 126.676 18.4206C126.066 18.7409 125.363 18.901 124.566 18.901C123.793 18.901 123.121 18.7448 122.551 18.4323C121.98 18.1198 121.5 17.6823 121.109 17.1198C120.727 16.5495 120.418 15.8893 120.184 15.1393C119.949 14.3893 119.77 13.5846 119.645 12.7253V12.0807C119.77 11.1589 119.949 10.3151 120.184 9.54948C120.418 8.77604 120.727 8.10807 121.109 7.54557C121.5 6.97526 121.977 6.53385 122.539 6.22135C123.109 5.90885 123.777 5.7526 124.543 5.7526C125.348 5.7526 126.055 5.90495 126.664 6.20963C127.281 6.51432 127.797 6.95182 128.211 7.52213C128.633 8.09245 128.949 8.77213 129.16 9.5612C129.379 10.3503 129.488 11.2253 129.488 12.1862ZM126.102 12.4323V12.1862C126.102 11.6471 126.055 11.151 125.961 10.6979C125.875 10.237 125.734 9.83463 125.539 9.49088C125.352 9.14713 125.102 8.88151 124.789 8.69401C124.484 8.4987 124.113 8.40104 123.676 8.40104C123.215 8.40104 122.82 8.47526 122.492 8.6237C122.172 8.77213 121.91 8.98698 121.707 9.26823C121.504 9.54948 121.352 9.88541 121.25 10.276C121.148 10.6667 121.086 11.1081 121.062 11.6003V13.2292C121.102 13.8073 121.211 14.3268 121.391 14.7878C121.57 15.2409 121.848 15.6003 122.223 15.8659C122.598 16.1315 123.09 16.2643 123.699 16.2643C124.145 16.2643 124.52 16.1667 124.824 15.9714C125.129 15.7682 125.375 15.4909 125.562 15.1393C125.758 14.7878 125.895 14.3815 125.973 13.9206C126.059 13.4596 126.102 12.9635 126.102 12.4323Z" fill="white"/>
</svg>
